<svg class="icon" viewBox="0 0 1024 1024" version="1.1" xmlns="http://www.w3.org/2000/svg" width="128" height="128"><path d="M541.76 885.6a41.728 41.728 0 0 1-7.2-9.216 49.12 49.12 0 0 1-6.304-25.056c0-19.776 9.792-35.04 29.344-45.824 19.584-10.752 48.928-17.024 88.064-18.784v-13.216c0-14.08-1.376-25.184-4.064-33.28-2.72-8.16-6.976-14.08-12.8-17.92-5.824-3.776-13.6-5.664-23.36-5.664-10.56 0-19.072 2.784-25.504 8.32-6.4 5.568-11.264 13.888-14.528 24.992h-26.592v-26.4a290.112 290.112 0 0 1 32.512-14.944c8.64-3.2 17.312-5.664 25.984-7.52 8.64-1.824 17.472-2.72 26.4-2.72 13.44 0 24.192 2.112 32.32 6.4 8.096 4.256 14.208 10.784 18.24 19.584 4.096 8.8 6.112 22.08 6.112 39.808v70.72c0 10.016 0.064 17.088 0.224 21.216 0.128 4.128 0.512 7.936 1.216 11.456 0.64 3.52 1.696 6.336 3.04 8.448a16.672 16.672 0 0 0 5.984 5.376c2.656 1.504 6.944 3.04 12.896 4.672V896h-55.68l1.056-29.056-3.072-0.8c-11.776 12.064-22.848 20.576-33.184 25.6a74.848 74.848 0 0 1-33.024 7.52c-10.272 0-19.36-2.016-27.2-6.016a46.08 46.08 0 0 1-8.64-5.632v4.832a7.04 7.04 0 0 1-2.24-6.848zM649.088 672V208.32c0 0.736-4.096 13.824-12.32 39.2-29.856 90.336-73.184 226.24-129.92 407.68l-52.64 178.08c-10.464 35.104-17.92 52.64-22.4 52.64-5.216 0-10.816-8.96-16.8-26.88-21.664-67.936-82.88-237.44-183.68-508.48L186.56 230.72c0.736 14.176 1.12 33.6 1.12 58.24v364c0 136.64 1.12 205.696 3.36 207.2 5.216 9.696 23.136 14.56 53.76 14.56 24.64 0 36.96 3.36 36.96 10.08 0 7.456-7.84 11.2-23.52 11.2-9.696 0-18.656-0.384-26.88-1.12a397.344 397.344 0 0 0-28-1.12l-128.8 3.36c-13.44 0-20.16-3.36-20.16-10.08 0-7.456 21.28-11.584 63.84-12.32 17.92 0 28.384-2.976 31.36-8.96 2.976-5.984 4.48-25.376 4.48-58.24V271.04c0-61.984-0.736-95.584-2.24-100.8a30.4 30.4 0 0 0-19.04-21.28c-9.696-3.744-30.624-6.72-62.72-8.96-11.936-0.736-17.92-4.096-17.92-10.08 0-8.224 10.816-12.32 32.48-12.32 2.976 0 9.344 0.384 19.04 1.12h58.24c44.064 0 75.04-0.384 92.96-1.12 3.744 9.696 25.76 68.32 66.08 175.84 17.184 44.8 65.344 175.456 144.48 392 14.176-48.544 28.736-96.32 43.68-143.36l118.72-370.72c6.72-21.664 12.704-39.584 17.92-53.76l168-1.12c24.64 0 38.816 1.12 42.56 3.36 3.744 2.24 5.6 5.6 5.6 10.08 0 7.456-6.336 11.2-19.04 11.2-20.896 0-35.104 0.736-42.56 2.24-17.92 2.976-30.24 8.96-36.96 17.92-3.744 5.216-5.6 48.896-5.6 131.04V672h-108.64z m-3.456 131.36c-27.52 0.288-48.096 3.936-61.76 10.976-13.664 7.04-20.512 17.664-20.512 31.904 0 7.712 1.568 13.792 4.672 18.272 3.104 4.48 7.04 7.552 11.776 9.248 4.736 1.696 10.368 2.56 16.864 2.56 9.216 0 17.568-2.24 25.088-6.72 7.52-4.48 13.376-10.176 17.568-17.056 4.192-6.912 6.304-13.76 6.304-20.544v-28.64z m175.072-24.576l26.432-33.504c2.848-3.648 5.12-7.2 6.88-10.656a23.2 23.2 0 0 0 2.656-10.656 9.856 9.856 0 0 0-3.456-7.744 22.816 22.816 0 0 0-10.752-4.48v-9.92h66.4v9.92c-5.12 1.504-10.368 4.416-15.744 8.768-5.344 4.32-11.872 11.296-19.584 20.896l-42.048 51.616 46.304 62.336c6.624 8.96 12.608 15.776 17.888 20.544 5.28 4.736 10.56 8.096 15.84 10.144V896h-81.664v-9.952c11.232-1.344 16.864-5.568 16.864-12.608a23.328 23.328 0 0 0-1.408-8.096 36.192 36.192 0 0 0-5.312-8.96l-29.44-41.024-31.264 40.64a54.4 54.4 0 0 0-5.408 8.224 18.176 18.176 0 0 0-1.92 8.416c0 3.648 1.28 6.656 3.744 9.024 2.528 2.4 6.464 3.84 11.904 4.384V896h-67.84v-9.952c4.48-1.6 8.48-3.648 12.064-6.08 3.584-2.464 7.264-5.6 10.976-9.472 3.712-3.84 8.64-9.504 14.72-16.96l42.24-52.384-43.232-59.328a185.024 185.024 0 0 0-14.24-17.664 55.264 55.264 0 0 0-9.728-8.32 32.736 32.736 0 0 0-8.96-4.064v-9.952h79.648v9.92c-10.72 1.632-16.064 5.856-16.064 12.608 0 3.136 0.704 6.24 2.144 9.344 1.408 3.136 3.616 6.56 6.592 10.368l24.768 34.72z"></path></svg>