<svg t="1682520664213" class="icon" viewBox="0 0 1024 1024" version="1.1" xmlns="http://www.w3.org/2000/svg" p-id="2539" width="128" height="128"><path d="M544 892.48a7.04 7.04 0 0 1-2.4-5.44c0-2.016 0.8-3.776 2.4-5.248v10.656zM649.12 576V208.32c0 0.736-4.096 13.824-12.32 39.2-29.856 90.336-73.184 226.24-129.92 407.68l-52.64 178.08c-10.464 35.104-17.92 52.64-22.4 52.64-5.216 0-10.816-8.96-16.8-26.88-21.664-67.936-82.88-237.44-183.68-508.48L186.56 230.72c0.736 14.176 1.12 33.6 1.12 58.24v364c0 136.64 1.12 205.696 3.36 207.2 5.216 9.696 23.136 14.56 53.76 14.56 24.64 0 36.96 3.36 36.96 10.08 0 7.456-7.84 11.2-23.52 11.2-9.696 0-18.656-0.384-26.88-1.12a397.344 397.344 0 0 0-28-1.12l-128.8 3.36c-13.44 0-20.16-3.36-20.16-10.08 0-7.456 21.28-11.584 63.84-12.32 17.92 0 28.384-2.976 31.36-8.96 2.976-5.984 4.48-25.376 4.48-58.24V271.04c0-61.984-0.736-95.584-2.24-100.8a30.4 30.4 0 0 0-19.04-21.28c-9.696-3.744-30.624-6.72-62.72-8.96-11.936-0.736-17.92-4.096-17.92-10.08 0-8.224 10.816-12.32 32.48-12.32 2.976 0 9.344 0.384 19.04 1.12h58.24c44.064 0 75.04-0.384 92.96-1.12 3.744 9.696 25.76 68.32 66.08 175.84 17.184 44.8 65.344 175.456 144.48 392 14.176-48.544 28.736-96.32 43.68-143.36l118.72-370.72c6.72-21.664 12.704-39.584 17.92-53.76l168-1.12c24.64 0 38.816 1.12 42.56 3.36 3.744 2.24 5.6 5.6 5.6 10.08 0 7.456-6.336 11.2-19.04 11.2-20.896 0-35.104 0.736-42.56 2.24-17.92 2.976-30.24 8.96-36.96 17.92-3.744 5.216-5.6 48.896-5.6 131.04V576h-108.64z m36.672 46.176v39.424h-37.376v-39.424h37.376z m-58.08 263.872c5.28-1.6 9.024-3.04 11.264-4.256a16.96 16.96 0 0 0 5.696-5.088 26.016 26.016 0 0 0 3.648-9.952c0.896-4.48 1.312-11.456 1.312-20.928v-88.544c0-8.672-0.128-15.68-0.384-20.928a31.68 31.68 0 0 0-2.88-12.704 15.456 15.456 0 0 0-7.392-7.104 58.624 58.624 0 0 0-14.112-3.968v-10.752l47.328-1.824h12.384v145.216c0 11.648 0.544 19.744 1.6 24.288 1.12 4.512 3.2 8 6.208 10.336 3.072 2.368 8.032 4.448 14.944 6.208V896h-79.616v-9.952zM941.12 896h-80v-9.952c5.248-1.6 9.056-3.04 11.36-4.256a16.64 16.64 0 0 0 5.76-5.088 26.144 26.144 0 0 0 3.68-10.048 117.76 117.76 0 0 0 1.312-20.64v-53.216a371.2 371.2 0 0 0-0.8-25.792 107.328 107.328 0 0 0-2.752-18.976 39.36 39.36 0 0 0-4.672-11.584 29.696 29.696 0 0 0-15.136-11.776 39.168 39.168 0 0 0-12.8-1.728c-5.28 0-10.272 1.056-15.04 3.136a61.44 61.44 0 0 0-15.616 10.88c-5.696 5.12-9.824 10.24-12.416 15.232-2.56 4.992-3.84 10.752-3.84 17.28v75.744c0 11.648 0.544 19.744 1.6 24.288 1.12 4.512 3.2 8 6.208 10.336 3.04 2.368 8.032 4.448 14.944 6.208V896h-79.616v-9.952c5.28-1.6 9.024-3.04 11.264-4.256a16.96 16.96 0 0 0 5.696-5.088 26.016 26.016 0 0 0 3.648-9.952c0.864-4.48 1.312-11.456 1.312-20.928v-88.544c0-8.672-0.128-15.68-0.416-20.928a31.68 31.68 0 0 0-2.816-12.704 15.456 15.456 0 0 0-7.424-7.104 58.624 58.624 0 0 0-14.112-3.968v-10.752l47.52-1.824h12.384l-2.24 33.088 2.88 0.832c9.984-10.176 18.08-17.408 24.256-21.76 6.144-4.32 12.384-7.68 18.688-10.048a56.32 56.32 0 0 1 20-3.52c7.328 0 13.856 0.832 19.616 2.496a42.784 42.784 0 0 1 26.112 20.928c2.816 5.216 4.96 11.488 6.4 18.784 1.408 7.328 2.112 16.608 2.112 27.84v76.576c0 9.344 0.256 16.128 0.8 20.32a26.112 26.112 0 0 0 2.88 9.76 16.64 16.64 0 0 0 5.856 5.76c2.56 1.6 7.04 3.232 13.44 4.992V896z"></path></svg>